<svg
 xmlns="http://www.w3.org/2000/svg"
 xmlns:xlink="http://www.w3.org/1999/xlink"
 width="19px" height="12px">
<path fill-rule="evenodd"  fill="rgb(0, 132, 255)"
 d="M18.987,1.010 C18.986,0.453 18.550,0.000 18.015,0.000 C18.014,0.000 18.013,0.000 18.013,0.000 L0.972,0.024 C0.712,0.025 0.467,0.130 0.284,0.321 C0.101,0.513 0.001,0.767 0.001,1.037 L0.014,10.990 C0.014,11.260 0.116,11.514 0.300,11.705 C0.484,11.895 0.728,12.000 0.987,12.000 L0.988,12.000 L18.028,11.976 C18.565,11.975 19.001,11.521 19.000,10.963 L18.987,1.010 ZM16.945,1.013 L9.502,6.392 L2.043,1.034 L16.945,1.013 ZM12.649,7.407 L17.064,10.965 L1.924,10.987 L6.366,7.407 C6.579,7.235 6.617,6.918 6.452,6.697 C6.288,6.477 5.982,6.436 5.769,6.607 L0.986,10.463 L0.974,1.497 L9.225,7.423 C9.309,7.483 9.405,7.513 9.502,7.513 C9.599,7.513 9.696,7.482 9.780,7.422 L18.015,1.472 L18.027,10.462 L13.245,6.607 C13.032,6.436 12.727,6.477 12.562,6.697 C12.398,6.918 12.437,7.235 12.649,7.407 Z"/>
</svg>
