<svg
 xmlns="http://www.w3.org/2000/svg"
 xmlns:xlink="http://www.w3.org/1999/xlink"
 width="11px" height="16px">
<path fill-rule="evenodd"  fill="rgb(0, 132, 255)"
 d="M9.900,9.525 L5.500,15.999 L1.093,9.516 C-0.551,7.284 -0.311,3.600 1.611,1.642 C2.650,0.584 4.030,0.001 5.500,0.001 C6.969,0.001 8.350,0.584 9.389,1.642 C11.311,3.600 11.550,7.284 9.900,9.525 ZM8.983,2.055 C8.053,1.108 6.816,0.586 5.500,0.586 C4.184,0.586 2.947,1.108 2.016,2.055 C0.282,3.823 0.068,7.150 1.559,9.175 L5.500,14.972 L9.434,9.184 C10.932,7.150 10.719,3.823 8.983,2.055 ZM5.551,7.597 C4.444,7.597 3.543,6.679 3.543,5.552 C3.543,4.424 4.444,3.507 5.551,3.507 C6.657,3.507 7.558,4.424 7.558,5.552 C7.558,6.679 6.657,7.597 5.551,7.597 ZM5.551,4.091 C4.760,4.091 4.117,4.746 4.117,5.552 C4.117,6.357 4.760,7.013 5.551,7.013 C6.341,7.013 6.985,6.357 6.985,5.552 C6.985,4.746 6.341,4.091 5.551,4.091 Z"/>
</svg>
