<svg
 xmlns="http://www.w3.org/2000/svg"
 xmlns:xlink="http://www.w3.org/1999/xlink"
 width="13px" height="17px">
<path fill-rule="evenodd"  fill="rgb(255, 255, 255)"
 d="M12.669,16.672 C12.622,16.722 12.555,16.750 12.485,16.750 L0.512,16.750 C0.442,16.750 0.377,16.722 0.329,16.672 C0.281,16.623 0.256,16.557 0.258,16.488 L0.829,4.675 C0.835,4.542 0.946,4.437 1.083,4.437 L3.505,4.437 L3.505,3.203 C3.505,1.574 4.848,0.250 6.499,0.250 C8.148,0.250 9.491,1.574 9.491,3.203 L9.491,4.437 L11.914,4.437 C12.051,4.437 12.163,4.542 12.169,4.675 L12.739,16.488 C12.742,16.557 12.717,16.623 12.669,16.672 ZM8.984,3.203 C8.984,1.851 7.870,0.750 6.499,0.750 C5.128,0.750 4.013,1.851 4.013,3.203 L4.013,4.437 L8.984,4.437 L8.984,3.203 ZM11.674,4.938 L9.491,4.938 L9.491,5.688 C9.491,5.826 9.378,5.937 9.238,5.937 C9.098,5.937 8.984,5.826 8.984,5.688 L8.984,4.938 L4.013,4.938 L4.013,5.688 C4.013,5.826 3.899,5.937 3.759,5.937 C3.619,5.937 3.505,5.826 3.505,5.688 L3.505,4.938 L1.324,4.938 L0.778,16.250 L12.219,16.250 L11.674,4.938 Z"/>
</svg>
