<svg
 xmlns="http://www.w3.org/2000/svg"
 xmlns:xlink="http://www.w3.org/1999/xlink"
 width="20px" height="20px">
<path fill-rule="evenodd"  fill="rgb(0, 132, 255)"
 d="M3.320,8.273 L2.858,8.273 L2.858,6.852 L3.266,6.852 C3.570,6.852 3.773,6.863 3.873,6.886 C4.011,6.916 4.123,6.989 4.213,7.108 C4.302,7.227 4.346,7.377 4.346,7.560 C4.346,7.708 4.315,7.837 4.251,7.949 C4.186,8.061 4.099,8.142 3.987,8.195 C3.876,8.247 3.653,8.273 3.320,8.273 ZM8.535,8.512 C8.535,8.125 8.507,7.828 8.450,7.621 C8.393,7.414 8.314,7.252 8.212,7.136 C8.109,7.020 7.979,6.941 7.821,6.899 C7.703,6.868 7.472,6.852 7.128,6.852 L6.749,6.852 L6.749,10.170 L7.379,10.170 C7.614,10.170 7.785,10.154 7.889,10.122 C8.026,10.081 8.139,10.012 8.230,9.914 C8.319,9.815 8.393,9.655 8.450,9.430 C8.507,9.206 8.535,8.899 8.535,8.512 ZM20.000,5.000 L19.996,19.996 L3.000,20.000 L3.000,12.000 L0.002,12.015 L0.000,5.000 L3.000,5.000 L3.000,-0.000 L15.000,-0.000 L20.000,5.000 ZM2.016,11.014 L2.858,11.014 L2.858,9.124 L3.408,9.124 C3.791,9.124 4.082,9.100 4.284,9.052 C4.432,9.014 4.577,8.935 4.721,8.815 C4.865,8.696 4.983,8.531 5.076,8.322 C5.170,8.112 5.216,7.853 5.216,7.545 C5.216,7.146 5.134,6.822 4.973,6.570 C4.812,6.318 4.612,6.155 4.372,6.079 C4.216,6.030 3.882,6.005 3.369,6.005 L2.016,6.005 L2.016,11.014 ZM19.000,5.000 L15.000,1.000 L4.000,1.000 L4.000,5.000 L15.000,5.000 L15.000,12.000 L4.000,12.000 L4.000,19.000 L19.022,18.992 L19.000,5.000 ZM7.493,11.014 C7.805,11.014 8.053,10.978 8.239,10.908 C8.488,10.811 8.686,10.679 8.832,10.508 C9.026,10.282 9.175,9.987 9.280,9.624 C9.365,9.325 9.408,8.970 9.408,8.558 C9.408,8.088 9.363,7.693 9.271,7.373 C9.179,7.053 9.047,6.783 8.872,6.562 C8.698,6.340 8.487,6.186 8.243,6.100 C8.060,6.037 7.796,6.005 7.447,6.005 L5.905,6.005 L5.905,11.014 L7.493,11.014 ZM10.972,8.037 L10.972,6.852 L12.993,6.852 L12.993,6.004 L10.129,6.004 L10.129,11.013 L10.972,11.013 L10.972,8.885 L12.716,8.885 L12.716,8.037 L10.972,8.037 Z"/>
</svg>
