<svg
 xmlns="http://www.w3.org/2000/svg"
 xmlns:xlink="http://www.w3.org/1999/xlink"
 width="16px" height="16px">
<path fill-rule="evenodd"  fill="rgb(255, 255, 255)"
 d="M12.632,14.510 C12.630,14.512 12.631,14.515 12.629,14.516 C12.620,14.522 12.611,14.527 12.602,14.533 C12.290,14.753 11.961,14.951 11.618,15.125 C11.572,15.149 11.525,15.170 11.479,15.193 C11.150,15.352 10.812,15.495 10.460,15.609 C10.446,15.613 10.432,15.620 10.417,15.624 C10.073,15.734 9.716,15.814 9.353,15.876 C9.270,15.891 9.187,15.903 9.103,15.915 C8.741,15.965 8.375,16.000 8.000,16.000 C7.624,16.000 7.258,15.965 6.896,15.915 C6.813,15.903 6.730,15.891 6.646,15.876 C6.283,15.814 5.927,15.734 5.582,15.624 C5.567,15.620 5.553,15.613 5.538,15.608 C5.188,15.495 4.850,15.353 4.522,15.193 C4.475,15.170 4.427,15.149 4.380,15.125 C4.038,14.951 3.711,14.754 3.400,14.535 C3.390,14.528 3.379,14.523 3.369,14.516 C3.367,14.515 3.368,14.511 3.366,14.509 C1.333,13.058 -0.000,10.684 -0.000,8.001 C-0.000,3.589 3.588,-0.000 8.000,-0.000 C12.411,-0.000 16.000,3.589 16.000,8.001 C16.000,10.685 14.666,13.058 12.632,14.510 ZM10.032,10.723 C10.179,10.508 10.362,10.241 10.502,9.484 C10.570,9.119 10.781,9.017 10.922,8.949 C11.073,8.877 11.228,8.803 11.283,8.075 C11.282,7.705 11.116,7.604 11.109,7.600 C11.020,7.549 10.962,7.441 10.981,7.339 C11.102,6.696 11.299,4.685 10.650,3.931 C10.208,3.416 9.510,3.401 9.378,3.408 C9.355,3.404 9.333,3.404 9.313,3.399 C9.249,3.383 9.143,3.329 9.110,3.272 C8.978,3.046 7.830,2.592 6.245,3.234 C4.679,3.867 4.675,5.227 4.878,6.474 C4.945,6.937 5.017,7.338 5.019,7.340 C5.039,7.450 4.982,7.558 4.882,7.604 C4.883,7.604 4.717,7.706 4.717,8.093 C4.771,8.801 4.927,8.876 5.078,8.948 C5.218,9.016 5.430,9.118 5.497,9.483 C5.637,10.239 5.820,10.506 5.967,10.722 C6.111,10.932 6.246,11.129 6.246,11.585 C6.246,12.982 5.720,13.679 4.053,14.367 C4.364,14.560 4.680,14.745 5.019,14.892 C5.101,14.927 5.187,14.950 5.270,14.983 C5.601,15.113 5.943,15.220 6.295,15.302 C6.415,15.330 6.535,15.357 6.656,15.379 C7.094,15.458 7.540,15.514 8.000,15.514 C8.460,15.514 8.905,15.458 9.343,15.379 C9.464,15.356 9.585,15.330 9.705,15.302 C10.055,15.220 10.396,15.113 10.725,14.984 C10.810,14.951 10.898,14.927 10.981,14.891 C11.319,14.744 11.636,14.560 11.946,14.367 C10.280,13.678 9.754,12.981 9.754,11.585 C9.754,11.130 9.888,10.932 10.032,10.723 ZM8.000,0.485 C3.855,0.485 0.485,3.856 0.485,8.001 C0.485,10.481 1.707,12.666 3.565,14.035 C5.440,13.317 5.761,12.714 5.761,11.585 C5.761,11.280 5.691,11.179 5.568,10.996 C5.403,10.757 5.178,10.429 5.020,9.572 C4.997,9.448 4.977,9.439 4.867,9.386 C4.574,9.244 4.303,9.041 4.232,8.111 C4.232,7.662 4.388,7.413 4.516,7.283 C4.488,7.123 4.442,6.848 4.399,6.546 C4.179,5.200 4.169,3.551 6.063,2.785 C7.714,2.116 9.031,2.481 9.445,2.917 C9.737,2.926 10.493,3.004 11.019,3.614 C11.827,4.556 11.569,6.700 11.481,7.281 C11.611,7.408 11.766,7.653 11.766,8.093 C11.696,9.041 11.426,9.245 11.132,9.386 C11.020,9.439 11.001,9.448 10.978,9.572 C10.820,10.429 10.596,10.757 10.431,10.996 C10.307,11.178 10.239,11.280 10.239,11.585 C10.239,12.714 10.559,13.317 12.434,14.035 C14.292,12.666 15.514,10.481 15.514,8.001 C15.514,3.856 12.144,0.485 8.000,0.485 Z"/>
</svg>
