<svg
 xmlns="http://www.w3.org/2000/svg"
 xmlns:xlink="http://www.w3.org/1999/xlink"
 width="16px" height="16px">
<path fill-rule="evenodd" fill="rgb(249, 166, 0)"
 d="M12.633,14.509 C12.631,14.511 12.632,14.515 12.630,14.516 C12.619,14.524 12.608,14.529 12.597,14.536 C12.287,14.755 11.960,14.951 11.620,15.125 C11.572,15.149 11.525,15.170 11.477,15.193 C11.149,15.353 10.810,15.495 10.458,15.609 C10.445,15.614 10.432,15.620 10.418,15.624 C10.073,15.734 9.716,15.814 9.353,15.876 C9.270,15.890 9.187,15.903 9.104,15.914 C8.742,15.965 8.376,16.000 8.001,16.000 C7.625,16.000 7.259,15.965 6.897,15.914 C6.813,15.903 6.730,15.890 6.646,15.876 C6.284,15.814 5.928,15.734 5.583,15.624 C5.567,15.619 5.552,15.612 5.536,15.607 C5.187,15.494 4.852,15.353 4.526,15.195 C4.476,15.171 4.427,15.148 4.378,15.123 C4.039,14.950 3.713,14.755 3.404,14.537 C3.393,14.529 3.381,14.524 3.370,14.516 C3.367,14.515 3.369,14.511 3.367,14.509 C1.333,13.057 0.000,10.683 0.000,8.000 C0.000,3.588 3.588,-0.000 8.001,-0.000 C12.411,-0.000 15.999,3.588 15.999,8.000 C15.999,10.684 14.667,13.058 12.633,14.509 ZM10.032,10.723 C10.179,10.508 10.362,10.240 10.503,9.484 C10.569,9.118 10.782,9.017 10.922,8.950 C11.072,8.877 11.228,8.802 11.283,8.075 C11.282,7.705 11.116,7.604 11.109,7.600 C11.020,7.548 10.962,7.440 10.982,7.340 C11.101,6.695 11.299,4.685 10.650,3.931 C10.208,3.415 9.511,3.401 9.379,3.407 C9.355,3.405 9.334,3.404 9.312,3.399 C9.250,3.383 9.142,3.328 9.110,3.272 C8.979,3.046 7.830,2.591 6.245,3.234 C4.678,3.867 4.675,5.227 4.878,6.473 C4.946,6.937 5.017,7.338 5.019,7.340 C5.039,7.449 4.982,7.557 4.882,7.604 C4.883,7.604 4.717,7.705 4.717,8.092 C4.771,8.801 4.927,8.876 5.078,8.948 C5.217,9.016 5.431,9.117 5.497,9.483 C5.638,10.239 5.820,10.507 5.968,10.723 C6.112,10.931 6.246,11.128 6.246,11.584 C6.246,12.981 5.720,13.678 4.054,14.366 C4.364,14.560 4.681,14.744 5.020,14.891 C5.102,14.927 5.188,14.950 5.271,14.983 C5.602,15.113 5.944,15.220 6.297,15.302 C6.416,15.330 6.536,15.356 6.656,15.378 C7.094,15.458 7.540,15.514 8.001,15.514 C8.460,15.514 8.905,15.458 9.342,15.379 C9.465,15.356 9.586,15.330 9.707,15.301 C10.055,15.220 10.394,15.114 10.722,14.985 C10.808,14.952 10.898,14.927 10.983,14.890 C11.321,14.743 11.637,14.559 11.946,14.367 C10.280,13.678 9.754,12.981 9.754,11.586 C9.754,11.130 9.889,10.932 10.032,10.723 ZM8.001,0.485 C3.856,0.485 0.485,3.855 0.485,8.000 C0.485,10.480 1.707,12.666 3.566,14.035 C5.440,13.317 5.760,12.713 5.760,11.585 C5.760,11.279 5.693,11.178 5.567,10.997 C5.404,10.757 5.178,10.429 5.021,9.571 C4.996,9.449 4.977,9.439 4.866,9.386 C4.574,9.244 4.303,9.040 4.232,8.111 C4.232,7.661 4.388,7.413 4.516,7.283 C4.488,7.123 4.442,6.848 4.398,6.547 C4.179,5.200 4.169,3.551 6.063,2.785 C7.714,2.116 9.032,2.481 9.445,2.917 C9.736,2.926 10.492,3.003 11.019,3.614 C11.827,4.555 11.570,6.700 11.481,7.280 C11.611,7.407 11.767,7.653 11.767,8.093 C11.697,9.040 11.426,9.244 11.132,9.386 C11.021,9.439 11.001,9.448 10.978,9.571 C10.820,10.429 10.595,10.757 10.431,10.997 C10.306,11.178 10.239,11.279 10.239,11.585 C10.239,12.713 10.560,13.317 12.434,14.035 C14.293,12.666 15.515,10.480 15.515,8.000 C15.515,3.855 12.144,0.485 8.001,0.485 Z"/>
</svg>
